<svg id="Calque_1" data-name="Calque 1" xmlns="http://www.w3.org/2000/svg" xmlns:xlink="http://www.w3.org/1999/xlink" viewBox="0 0 3046.44 749.5"><defs><style>.cls-1{fill:url(#Dégradé_sans_nom_6);}.cls-2{fill:url(#Dégradé_sans_nom_6-2);}.cls-3{fill:url(#Dégradé_sans_nom_8);}.cls-4{fill:url(#Dégradé_sans_nom_12);}.cls-5{fill:url(#Dégradé_sans_nom_10);}.cls-6{fill:url(#Dégradé_sans_nom_11);}.cls-7{fill:#1b143d;}</style><linearGradient id="Dégradé_sans_nom_6" x1="334.63" y1="546.12" x2="526.63" y2="546.12" gradientUnits="userSpaceOnUse"><stop offset="0" stop-color="#6db1ff"/><stop offset="1" stop-color="#0071bc"/></linearGradient><linearGradient id="Dégradé_sans_nom_6-2" x1="554.12" y1="285.92" x2="438.06" y2="666.03" xlink:href="#Dégradé_sans_nom_6"/><linearGradient id="Dégradé_sans_nom_8" x1="553.16" y1="455.63" x2="705.27" y2="385.9" gradientUnits="userSpaceOnUse"><stop offset="0" stop-color="#6db1ff"/><stop offset="1" stop-color="#fff"/></linearGradient><linearGradient id="Dégradé_sans_nom_12" x1="-2742.74" y1="2794.05" x2="-2550.75" y2="2794.05" gradientTransform="translate(-2271.16 2997.43) rotate(180)" gradientUnits="userSpaceOnUse"><stop offset="0" stop-color="#29abe2"/><stop offset="1" stop-color="#22b573"/></linearGradient><linearGradient id="Dégradé_sans_nom_10" x1="-2699.56" y1="2771.36" x2="-2444.28" y2="2527.76" gradientTransform="translate(-2271.16 2997.43) rotate(180)" gradientUnits="userSpaceOnUse"><stop offset="0" stop-color="#006837"/><stop offset="1" stop-color="#22b573"/></linearGradient><linearGradient id="Dégradé_sans_nom_11" x1="-2524.21" y1="2703.56" x2="-2372.1" y2="2633.82" gradientTransform="translate(-2271.16 2997.43) rotate(180)" gradientUnits="userSpaceOnUse"><stop offset="0" stop-color="#22b573"/><stop offset="1" stop-color="#fff"/></linearGradient></defs><title>Plan de travail 6 copie</title><path class="cls-1" d="M487.94,631.09q.4,2.89.89,5.77a278.14,278.14,0,0,1-154.17-2.21l0-.2a239.28,239.28,0,0,1,192-188.88A275.07,275.07,0,0,0,485.1,591.36,278.45,278.45,0,0,0,487.94,631.09Z"/><path class="cls-2" d="M684.15,325.9A277,277,0,0,0,526.63,445.57a239.28,239.28,0,0,0-192,188.88,279,279,0,0,1-3.22-35.05q-.12-4-.12-8c0-152.68,123.77-276.45,276.44-276.45a276.58,276.58,0,0,1,76.33,10.68Z"/><path class="cls-3" d="M694,393.94a239.35,239.35,0,0,1-12.2,75.66,240.34,240.34,0,0,0-155.13-24A277,277,0,0,1,684.15,325.9,239.46,239.46,0,0,1,694,393.94Z"/><path class="cls-4" d="M318.28,118.41q-.42-2.89-.9-5.77a278.14,278.14,0,0,1,154.17,2.21l0,.2A236.61,236.61,0,0,1,463.94,144a239.81,239.81,0,0,1-184.35,160,275.15,275.15,0,0,0,41.52-145.79A279.92,279.92,0,0,0,318.28,118.41Z"/><path class="cls-5" d="M122.06,423.6A277,277,0,0,0,279.59,303.93,239.81,239.81,0,0,0,463.94,144a236.61,236.61,0,0,0,7.64-28.91,277.16,277.16,0,0,1,3.22,35.05q.12,4,.12,8c0,152.68-123.77,276.45-276.44,276.45a276.63,276.63,0,0,1-76.33-10.68Z"/><path class="cls-6" d="M112.26,355.56a239.35,239.35,0,0,1,12.19-75.66,238.47,238.47,0,0,0,112.23,27.87,240.89,240.89,0,0,0,42.91-3.84A277,277,0,0,1,122.06,423.6,239.45,239.45,0,0,1,112.26,355.56Z"/><path class="cls-7" d="M981.38,235.28c-3.35-11.91-7.81-24.18-11.9-30.88-6-10-9.67-12.65-30.13-12.65h-37.2V372.92c0,29,3,33.1,38.31,35.33v10.42H832.21V408.25c34.6-2.23,37.57-5.95,37.57-35.33V191.75H835.93c-20.46,0-26.41,2.24-32.73,13.4-4.47,7.44-7.44,16.36-12.28,30.13H779.76c2.23-22.69,4.46-46.13,5.58-67h8.56c5.58,8.93,9.67,8.55,20.08,8.55H961.29c10.42,0,13.4-1.48,19-8.55h8.92c0,17.48,1.49,44.27,3.35,65.84Z"/><path class="cls-7" d="M1289.39,187.29c-30.87,3-33.85,4.84-33.85,36.08V372.54c0,31.25,3.35,32.37,33.85,35.71v10.42H1189.7V408.25c30.87-3.72,33.85-4.46,33.85-35.71v-74.4H1096.33v74.4c0,30.88,3,32,33.48,35.71v10.42h-99.32V408.25c30.13-3.34,33.47-4.46,33.47-35.71V223.37c0-31.24-3.34-33.1-33.47-36.08V176.87h99.32v10.42c-29.76,2.6-33.48,5.21-33.48,36.08v59.15h127.22V223.37c0-30.87-4.09-33.48-33.85-36.08V176.87h99.69Z"/><path class="cls-7" d="M1527.47,359.52c-2.23,9.68-12.28,48-16,59.15H1330.68V408.25c34.6-2.6,37.2-5.95,37.2-36.45V224.86c0-33.11-4.09-35-32-37.57V176.87h113.83c35,0,49.48-.37,53.94-.74.37,9.3,1.86,37.2,3.35,56.92l-11.16,1.86a124.29,124.29,0,0,0-11.16-28.28c-6-12.27-14.51-14.88-36.83-14.88h-35.34c-11.53,0-12.27,1.12-12.27,11.91v82.21h41.29c27.9,0,29.76-5.58,34.22-30.88h11.53v76.63h-11.53c-4.84-26.78-7.81-30.5-34.6-30.5h-40.91v74c0,26,8.18,28.27,26.78,28.64h34.59c22.7,0,26.42-3.35,34.6-13,7.07-7.81,14.88-23.06,20.09-34.22Z"/><path class="cls-7" d="M1781.54,421.65c-4.84,0-8.93-.38-13.76-.75-27.16-1.86-41.67-8.93-58-32-13.76-19-27.15-42.41-39.06-61.38-7.44-11.9-12.27-14.13-31.24-14.13h-13v58.4c0,31.62,4.09,33.48,33.85,36.45v10.42H1561V408.25c30.87-3.34,33.48-4.83,33.48-36.45V223.37c0-31.62-4.1-32.73-33.48-36.08V176.87h94.86c27.15,0,45.38,3.35,59.51,12.65,15.26,9.67,25.3,26.41,25.3,49.11,0,32-20.46,52.07-48,64,6.7,11.53,22.69,36.45,33.85,53.19,13.77,19.72,20.84,29,29.39,38.32,10,10.79,18.6,14.88,27.16,17.11Zm-137.27-120.9c19.35,0,31.62-3,40.92-10.79,14.51-10.79,20.46-25.67,20.46-45.75,0-39.81-26.41-54.32-55.05-54.32-10.79,0-17.11,1.49-19.72,3.72-3.35,2.61-4.46,6.33-4.46,16v91.14Z"/><path class="cls-7" d="M1948.19,418.67V408.25c24.18-3,27.16-6.69,22-20.83-4.83-14.5-12.28-33.1-20.09-56.54H1869.7c-6,16.74-11.53,31.25-16.74,46.5-8.18,24.18-3,27.15,27.53,30.87v10.42h-85.93V408.25c23.44-3,29.39-5.58,42.41-39.05l77-195.3,11.9-2.23c23.44,63.61,49.11,133.91,72.54,198.27,11.91,32.36,15.25,35.34,41.67,38.31v10.42ZM1911,220.4c-11.9,32-24.55,65.84-35.71,95.23h69.57Z"/><path class="cls-7" d="M2283.36,359.15c-5.21,17.86-14.88,44.64-20.46,56.17-10.79,2.23-39.81,8.93-68.08,8.93-88.91,0-134.29-59.15-134.29-124.25,0-75.88,57.66-128.33,141-128.33,32,0,58,6.69,70.3,8.55,1.49,16.74,4.1,39.06,7.07,57.66l-11.53,2.61c-7.44-24.93-16.37-40.18-35.34-48-9.67-4.47-24.92-7.07-39.06-7.07-61.38,0-93.74,45.38-93.74,106.76,0,71.8,37.2,117.92,97.46,117.92,37.94,0,56.54-17.48,75.52-54.68Z"/><path class="cls-7" d="M2466.38,418.67V408.25c24.18-3,27.15-6.69,21.94-20.83-4.83-14.5-12.27-33.1-20.08-56.54h-80.35c-6,16.74-11.54,31.25-16.74,46.5-8.19,24.18-3,27.15,27.52,30.87v10.42h-85.93V408.25c23.44-3,29.39-5.58,42.41-39.05l77-195.3,11.91-2.23c23.43,63.61,49.1,133.91,72.54,198.27,11.9,32.36,15.25,35.34,41.66,38.31v10.42Zm-37.2-198.27c-11.91,32-24.55,65.84-35.71,95.23H2463Z"/><path class="cls-7" d="M2801.17,421.65c-4.83,0-8.93-.38-13.76-.75-27.16-1.86-41.67-8.93-58-32-13.77-19-27.16-42.41-39.06-61.38-7.44-11.9-12.28-14.13-31.25-14.13h-13v58.4c0,31.62,4.09,33.48,33.85,36.45v10.42h-99.32V408.25c30.87-3.34,33.48-4.83,33.48-36.45V223.37c0-31.62-4.09-32.73-33.48-36.08V176.87h94.86c27.15,0,45.38,3.35,59.52,12.65,15.25,9.67,25.29,26.41,25.29,49.11,0,32-20.46,52.07-48,64,6.69,11.53,22.69,36.45,33.85,53.19,13.76,19.72,20.83,29,29.38,38.32,10.05,10.79,18.6,14.88,27.16,17.11Zm-137.26-120.9c19.34,0,31.62-3,40.91-10.79,14.51-10.79,20.46-25.67,20.46-45.75,0-39.81-26.41-54.32-55.05-54.32-10.79,0-17.11,1.49-19.72,3.72-3.34,2.61-4.46,6.33-4.46,16v91.14Z"/><path class="cls-7" d="M3016.18,359.52c-2.23,9.68-12.27,48-16,59.15H2819.4V408.25c34.59-2.6,37.2-5.95,37.2-36.45V224.86c0-33.11-4.09-35-32-37.57V176.87h113.83c35,0,49.47-.37,53.94-.74.37,9.3,1.86,37.2,3.34,56.92l-11.15,1.86a123.8,123.8,0,0,0-11.17-28.28c-6-12.27-14.5-14.88-36.82-14.88h-35.34c-11.53,0-12.28,1.12-12.28,11.91v82.21h41.29c27.9,0,29.76-5.58,34.23-30.88H2976v76.63h-11.53c-4.84-26.78-7.82-30.5-34.6-30.5H2889v74c0,26,8.19,28.27,26.79,28.64h34.59c22.69,0,26.41-3.35,34.6-13,7.06-7.81,14.88-23.06,20.08-34.22Z"/><path class="cls-7" d="M2267.1,573.7v-2.24c6.56-.64,6.8-1.12,6.72-9.68l.08-32.64c-6.56,14.64-17.12,37.52-19.92,44.56h-2.08c-2.72-7.28-11.76-29.28-17.84-43.76-1.36,28-1.44,34.32-1.44,35.84.08,4.48,2.08,5.12,7.52,5.68v2.24h-19v-2.24c4.64-.48,6.56-1.44,7.2-5.76.48-3.52.56-6.4,2.64-35.6.32-4.16-.48-5.52-7.52-6.16V521.7h13.92l17.68,40.56,19-40.56h14v2.24c-6.88.8-7.76,1.52-7.6,7.12l.32,30.72c.32,8.56.56,9,7.6,9.68v2.24Z"/><path class="cls-7" d="M2322.7,566.9c-5.12,6.4-10.72,7.76-13.28,7.76-9.76,0-15.68-8-15.68-17.2a20.54,20.54,0,0,1,5.2-14,16.41,16.41,0,0,1,11.92-5.84A12.48,12.48,0,0,1,2323.1,550c-.08,1.6-.32,2.32-1.6,2.64-1.6.32-11.84,1-21.36,1.36-.24,10.72,6.32,15.12,12,15.12,3.28,0,6.32-1.36,9.28-4.08Zm-13.76-26.24c-3.68,0-7.28,3.44-8.4,9.92,4.48,0,9,0,13.68-.24,1.44,0,1.92-.4,1.92-1.6C2316.22,544.5,2313.42,540.66,2308.94,540.66Z"/><path class="cls-7" d="M2369.18,571.7a84.67,84.67,0,0,0-12.4,3v-5.2c-1.44.88-3.52,2-5,2.88-3.2,1.84-5.36,2.32-6.32,2.32-6.4,0-14.88-6.4-14.88-17.6s9.76-19.44,20.72-19.44a16.28,16.28,0,0,1,5.44.88V526.74c0-5.12-.56-5.28-6.24-5.76V518.9a79.77,79.77,0,0,0,12.56-2.72v48.24c0,4.16.56,4.72,3.52,4.88l2.56.16Zm-12.4-26.88c-1.84-2.8-5.28-4.08-8.4-4.08-3.84,0-10.64,2.56-10.64,14.08,0,9.68,6,14.8,11.12,14.88a14.38,14.38,0,0,0,7.92-2.88Z"/><path class="cls-7" d="M2374.54,573.7v-2.24c5-.48,5.6-.88,5.6-6.32V548.66c0-5-.24-5.28-5-6.08v-1.92a52.39,52.39,0,0,0,11.36-3.2v27.68c0,5.44.56,5.84,5.76,6.32v2.24Zm8.32-44.08a4.38,4.38,0,0,1-4.24-4.24,4.32,4.32,0,0,1,4.32-4.4,4.18,4.18,0,0,1,4.08,4.4A4.25,4.25,0,0,1,2382.86,529.62Z"/><path class="cls-7" d="M2427.82,566.5c-3.52,4.64-8.88,8.16-13.68,8.16-10.16,0-16.16-8.24-16.16-16.8,0-6.32,2.72-11.6,8.08-15.68a21.17,21.17,0,0,1,12.16-4.56c3.6,0,6.24,1.12,7.44,2.16a2.52,2.52,0,0,1,1.28,2.32c0,1.92-2,3.6-2.88,3.6-.4,0-.72-.16-1.52-.8a11.89,11.89,0,0,0-8.08-3.36c-5.28,0-9.92,4.48-9.92,12.8-.08,11.12,7.52,14.8,12.16,14.8,3.36,0,6.08-.88,9.76-4.4Z"/><path class="cls-7" d="M2459.1,574.66a5.86,5.86,0,0,1-3.76-1.52,7.51,7.51,0,0,1-1.92-3.6c-3.2,2.16-7.12,5.12-9.6,5.12a9.81,9.81,0,0,1-9.76-9.84c0-3.92,2.16-6.48,6.56-8,4.88-1.68,10.88-3.76,12.64-5.2V550c0-5.68-2.88-9-7-9a4.64,4.64,0,0,0-3.76,1.84,17.16,17.16,0,0,0-2.16,5.2,2.23,2.23,0,0,1-2.32,1.84,3.85,3.85,0,0,1-3.52-3.52c0-1.12,1-2.08,2.64-3.2,2.32-1.68,7-4.64,11.52-5.6a11.06,11.06,0,0,1,6.72,2.16c2.8,2.4,4.08,5.12,4.08,9.28V564.5c0,3.68,1.36,4.8,2.8,4.8a6.36,6.36,0,0,0,2.88-.88l.8,2.24Zm-5.84-20.24c-1.76.88-5.6,2.56-7.44,3.36-3,1.36-4.88,2.88-4.88,5.84a5.82,5.82,0,0,0,5.76,6.16,10.63,10.63,0,0,0,6.56-2.88Z"/><path class="cls-7" d="M2469.66,573.7v-2.24c5.12-.48,5.76-.88,5.76-6.16V527c0-4.88-.4-5.36-5.52-6V518.9a56.68,56.68,0,0,0,11.84-2.72V565.3c0,5.28.48,5.68,5.68,6.16v2.24Z"/><path class="cls-7" d="M2562.46,560.9a101.47,101.47,0,0,1-4.4,12.08,73,73,0,0,1-14.65,1.92c-19.12,0-28.88-12.72-28.88-26.72,0-16.32,12.4-27.6,30.33-27.6,6.88,0,12.48,1.44,15.12,1.84.32,3.6.88,8.4,1.52,12.4l-2.48.56c-1.6-5.36-3.53-8.64-7.61-10.32a21.83,21.83,0,0,0-8.39-1.52c-13.21,0-20.17,9.76-20.17,23,0,15.44,8,25.36,21,25.36,8.16,0,12.16-3.76,16.24-11.76Z"/><path class="cls-7" d="M2596.45,574.66a5.86,5.86,0,0,1-3.76-1.52,7.51,7.51,0,0,1-1.92-3.6c-3.2,2.16-7.12,5.12-9.6,5.12a9.81,9.81,0,0,1-9.76-9.84c0-3.92,2.16-6.48,6.56-8,4.88-1.68,10.88-3.76,12.64-5.2V550c0-5.68-2.88-9-7-9a4.64,4.64,0,0,0-3.76,1.84,17.16,17.16,0,0,0-2.16,5.2,2.23,2.23,0,0,1-2.32,1.84,3.85,3.85,0,0,1-3.52-3.52c0-1.12,1-2.08,2.64-3.2,2.32-1.68,7-4.64,11.52-5.6a11.06,11.06,0,0,1,6.72,2.16c2.8,2.4,4.08,5.12,4.08,9.28V564.5c0,3.68,1.36,4.8,2.8,4.8a6.36,6.36,0,0,0,2.88-.88l.8,2.24Zm-5.84-20.24c-1.76.88-5.6,2.56-7.44,3.36-3,1.36-4.88,2.88-4.88,5.84a5.82,5.82,0,0,0,5.76,6.16,10.63,10.63,0,0,0,6.56-2.88Z"/><path class="cls-7" d="M2626.61,573.7h-18.4v-2.24c5-.48,5.52-.88,5.52-6.08V548.74c0-5.28-.32-5.52-5-6.08v-2a44.28,44.28,0,0,0,11.28-3.28v8.8c2.8-4.16,6.16-8.56,10.16-8.56,3,0,4.64,1.84,4.64,3.84a5.37,5.37,0,0,1-2.72,4.4,1.58,1.58,0,0,1-2.08-.16c-1.2-1.2-2.16-2-3.6-2-1.68,0-4.64,2.48-6.4,6.56v15c0,5.28.4,5.68,6.56,6.16Z"/><path class="cls-7" d="M2668.21,566.9c-5.12,6.4-10.72,7.76-13.28,7.76-9.76,0-15.68-8-15.68-17.2a20.54,20.54,0,0,1,5.2-14,16.41,16.41,0,0,1,11.92-5.84,12.48,12.48,0,0,1,12.24,12.4c-.08,1.6-.32,2.32-1.6,2.64-1.6.32-11.84,1-21.36,1.36-.24,10.72,6.32,15.12,12,15.12,3.28,0,6.32-1.36,9.28-4.08Zm-13.76-26.24c-3.68,0-7.28,3.44-8.4,9.92,4.48,0,9,0,13.68-.24,1.44,0,1.92-.4,1.92-1.6C2661.73,544.5,2658.93,540.66,2654.45,540.66Z"/><path class="cls-7" d="M2694.53,540.26a51.91,51.91,0,0,0,11.6-3.44v6.4c.24-.16,6.64-3.84,7-4a11.3,11.3,0,0,1,4.64-1.6c8.8,0,14.16,7.36,14.16,15.28,0,12.16-9.6,19.84-20.08,21.76a13.25,13.25,0,0,1-5.68-1.44V584c0,5.92.64,6.4,6.8,7v2.24h-19V591c5.2-.56,5.84-1,5.84-6.32v-36.4c0-4.8-.16-5.12-5.28-5.84Zm11.6,27.36a11.59,11.59,0,0,0,7.6,3.12c7,0,11.44-5.84,11.44-14.8,0-8.64-5-13.52-10.72-13.52-2.8,0-6.16,1.84-8.32,3.44Z"/><path class="cls-7" d="M2738.21,573.7v-2.24c5.12-.48,5.76-.88,5.76-6.16V527c0-4.88-.4-5.36-5.52-6V518.9a56.68,56.68,0,0,0,11.84-2.72V565.3c0,5.28.48,5.68,5.68,6.16v2.24Z"/><path class="cls-7" d="M2787.09,574.66a5.86,5.86,0,0,1-3.76-1.52,7.51,7.51,0,0,1-1.92-3.6c-3.2,2.16-7.12,5.12-9.6,5.12a9.81,9.81,0,0,1-9.76-9.84c0-3.92,2.16-6.48,6.56-8,4.88-1.68,10.88-3.76,12.64-5.2V550c0-5.68-2.88-9-7-9a4.64,4.64,0,0,0-3.76,1.84,17.16,17.16,0,0,0-2.16,5.2,2.23,2.23,0,0,1-2.32,1.84,3.85,3.85,0,0,1-3.52-3.52c0-1.12,1-2.08,2.64-3.2,2.32-1.68,7-4.64,11.52-5.6a11.06,11.06,0,0,1,6.72,2.16c2.8,2.4,4.08,5.12,4.08,9.28V564.5c0,3.68,1.36,4.8,2.8,4.8a6.36,6.36,0,0,0,2.88-.88l.8,2.24Zm-5.84-20.24c-1.76.88-5.6,2.56-7.44,3.36-3,1.36-4.88,2.88-4.88,5.84a5.82,5.82,0,0,0,5.76,6.16,10.63,10.63,0,0,0,6.56-2.88Z"/><path class="cls-7" d="M2813.73,573.62a8.07,8.07,0,0,1-3.44,1c-5.12,0-7.84-3.12-7.84-9.52V541.86h-5.52l-.32-1,2.16-2.32h3.68v-6.72c1.52-1.6,3.84-3.68,5.36-5.28l1.2.16c-.16,3.36-.24,8-.24,11.84h9.12a2.5,2.5,0,0,1-.48,3.28h-8.64v20.48c0,6.48,2.56,7.68,4.64,7.68a11.44,11.44,0,0,0,4.88-1.28l.72,2.08Z"/><path class="cls-7" d="M2828.45,538.58v-2.16a20.57,20.57,0,0,1,7-16,16.58,16.58,0,0,1,9-4.24c2.72.08,5.2,1,6.48,2.56a2.56,2.56,0,0,1,.48,2.8,6.36,6.36,0,0,1-1.92,2.56,1.82,1.82,0,0,1-2.32-.16c-1.6-1.44-3.84-3.28-6.48-3.28-5.92,0-5.92,8.08-5.92,14.16v3.76h8.48a3,3,0,0,1-.8,3.28h-7.68V565c0,5.76.88,5.84,6.88,6.48v2.24h-18.8v-2.24c5-.48,5.6-.8,5.6-6v-23.6h-5.68l-.32-.88,1.76-2.4Z"/><path class="cls-7" d="M2865.73,537.62c10,0,17.44,7.6,17.44,17.92,0,13-9.6,19.12-17.44,19.12-11,0-17.76-8.88-17.76-17.84C2848,543.78,2858.13,537.62,2865.73,537.62Zm-1,2.72c-4.88,0-9.28,4.72-9.28,14,0,10.16,4.48,17.52,11,17.52,5,0,9.12-3.6,9.12-14.56C2875.65,547.94,2871.81,540.34,2864.77,540.34Z"/><path class="cls-7" d="M2908.37,573.7H2890v-2.24c5-.48,5.52-.88,5.52-6.08V548.74c0-5.28-.32-5.52-5-6.08v-2a44.28,44.28,0,0,0,11.28-3.28v8.8c2.8-4.16,6.16-8.56,10.16-8.56,3,0,4.64,1.84,4.64,3.84a5.37,5.37,0,0,1-2.72,4.4,1.58,1.58,0,0,1-2.08-.16c-1.2-1.2-2.16-2-3.6-2-1.68,0-4.64,2.48-6.4,6.56v15c0,5.28.4,5.68,6.56,6.16Z"/><path class="cls-7" d="M2965.25,573.7v-2.24c4.72-.48,5.28-.8,5.28-6.4V551.7c0-5.68-1.92-9.28-6.88-9.28-3,0-5.84,1.68-8.88,4.16A32.91,32.91,0,0,1,2955,550v15.52c0,5,.72,5.44,5.12,5.92v2.24H2943v-2.24c5-.48,5.68-.8,5.68-6.08V551.62c0-5.92-1.84-9.2-6.72-9.2-3.2,0-6.32,2.16-8.8,4.16v18.8c0,5.28.56,5.6,5.12,6.08v2.24h-17.2v-2.24c5.28-.48,5.76-.8,5.76-6.08V548.82c0-5.12-.32-5.44-4.8-6.24v-2a43,43,0,0,0,11.12-3.2v6.48a56,56,0,0,1,5.92-4.16,10.87,10.87,0,0,1,6.32-2.08c3.84,0,7.12,2.4,8.72,6.56,2.24-1.76,4.32-3.12,6.32-4.48a12.14,12.14,0,0,1,6.32-2.08c6.24,0,10.08,4.48,10.08,12.32v15.44c0,5.36.48,5.6,5,6.08v2.24Z"/></svg>