<svg id="Calque_1" data-name="Calque 1" xmlns="http://www.w3.org/2000/svg" xmlns:xlink="http://www.w3.org/1999/xlink" viewBox="0 0 1500 1500"><defs><style>.cls-1{fill:url(#Dégradé_sans_nom_6);}.cls-2{fill:url(#Dégradé_sans_nom_6-2);}.cls-3{fill:url(#Dégradé_sans_nom_8);}.cls-4{fill:url(#Dégradé_sans_nom_12);}.cls-5{fill:url(#Dégradé_sans_nom_10);}.cls-6{fill:url(#Dégradé_sans_nom_11);}</style><linearGradient id="Dégradé_sans_nom_6" x1="597.82" y1="1172.97" x2="1056.21" y2="1172.97" gradientUnits="userSpaceOnUse"><stop offset="0" stop-color="#6db1ff"/><stop offset="1" stop-color="#0071bc"/></linearGradient><linearGradient id="Dégradé_sans_nom_6-2" x1="1121.85" y1="551.73" x2="844.77" y2="1459.26" xlink:href="#Dégradé_sans_nom_6"/><linearGradient id="Dégradé_sans_nom_8" x1="1119.57" y1="956.92" x2="1482.73" y2="790.43" gradientUnits="userSpaceOnUse"><stop offset="0" stop-color="#6db1ff"/><stop offset="1" stop-color="#fff"/></linearGradient><linearGradient id="Dégradé_sans_nom_12" x1="199.62" y1="811.98" x2="658.01" y2="811.98" gradientTransform="translate(1124.41 1166.64) rotate(180)" gradientUnits="userSpaceOnUse"><stop offset="0" stop-color="#29abe2"/><stop offset="1" stop-color="#22b573"/></linearGradient><linearGradient id="Dégradé_sans_nom_10" x1="302.73" y1="757.81" x2="912.21" y2="176.19" gradientTransform="translate(1124.41 1166.64) rotate(180)" gradientUnits="userSpaceOnUse"><stop offset="0" stop-color="#006837"/><stop offset="1" stop-color="#22b573"/></linearGradient><linearGradient id="Dégradé_sans_nom_11" x1="721.36" y1="595.92" x2="1084.53" y2="429.43" gradientTransform="translate(1124.41 1166.64) rotate(180)" gradientUnits="userSpaceOnUse"><stop offset="0" stop-color="#22b573"/><stop offset="1" stop-color="#fff"/></linearGradient></defs><title>Plan de travail 5</title><path class="cls-1" d="M963.84,1375.84c.66,4.6,1.38,9.2,2.13,13.77a664.22,664.22,0,0,1-368.07-5.27c0-.16,0-.31-.08-.47a567.94,567.94,0,0,1,18.24-69c65.15-195.77,233.29-344.51,440.15-381.93A656.94,656.94,0,0,0,957.07,1281,667.12,667.12,0,0,0,963.84,1375.84Z"/><path class="cls-2" d="M1432.32,647.18c-157.81,45.91-291.2,149.18-376.11,285.72-206.86,37.42-375,186.16-440.15,381.93a567.94,567.94,0,0,0-18.24,69,664.58,664.58,0,0,1-7.69-83.7q-.28-9.57-.28-19.2c0-364.51,295.5-660,660-660a659.8,659.8,0,0,1,182.24,25.49C1432.17,646.69,1432.24,646.93,1432.32,647.18Z"/><path class="cls-3" d="M1455.72,809.62a571.33,571.33,0,0,1-29.12,180.65,574.05,574.05,0,0,0-370.39-57.37c84.91-136.54,218.3-239.81,376.11-285.72A572.23,572.23,0,0,1,1455.72,809.62Z"/><path class="cls-4" d="M558.78,151.8q-1-6.92-2.14-13.78a664.39,664.39,0,0,1,368.08,5.28c0,.16,0,.31.07.47a565.48,565.48,0,0,1-18.24,69C841.41,408.58,673.27,557.32,466.4,594.74a657,657,0,0,0,99.14-348.07A667,667,0,0,0,558.78,151.8Z"/><path class="cls-5" d="M90.3,880.46c157.8-45.92,291.19-149.18,376.1-285.72,206.87-37.42,375-186.16,440.15-381.94a565.48,565.48,0,0,0,18.24-69,662.72,662.72,0,0,1,7.69,83.7q.28,9.56.28,19.2c0,364.51-295.5,660-660,660A660.25,660.25,0,0,1,90.51,881.19Z"/><path class="cls-6" d="M66.89,718A571.33,571.33,0,0,1,96,537.36,569.14,569.14,0,0,0,364,603.9a574.53,574.53,0,0,0,102.45-9.16C381.49,731.28,248.1,834.54,90.3,880.46A571.94,571.94,0,0,1,66.89,718Z"/></svg>